HIERARCHY
ROOT Hips
{
  OFFSET 7.24194 94.5659 -27.2317
  CHANNELS 6 Xposition Yposition Zposition Zrotation Xrotation Yrotation
  JOINT ToSpine
  {
    OFFSET -2.69724 7.43032 -0.144315
    CHANNELS 3 Zrotation Xrotation Yrotation
    JOINT Spine
    {
      OFFSET -0.0310711 10.7595 1.96963
      CHANNELS 3 Zrotation Xrotation Yrotation
      JOINT Spine1
      {
        OFFSET 13.1342 3.43533 0.764692
        CHANNELS 3 Zrotation Xrotation Yrotation
        JOINT Neck
        {
          OFFSET 29.8703 7.82586 -0.130764
          CHANNELS 3 Zrotation Xrotation Yrotation
          JOINT Head
          {
            OFFSET 9.52751 0.295786 -0.907742
            CHANNELS 3 Zrotation Xrotation Yrotation
            End Site
            {
              OFFSET 16.4037 0.713936 2.7358
            }
          }
        }
        JOINT LeftShoulder
        {
          OFFSET 27.5574 4.95586 2.47156
          CHANNELS 3 Zrotation Xrotation Yrotation
          JOINT LeftArm
          {
            OFFSET 1.20734 -0.998971 20.1238
            CHANNELS 3 Zrotation Xrotation Yrotation
            JOINT LeftForeArm
            {
              OFFSET 26.8049 -0.0536703 -0.155908
              CHANNELS 3 Zrotation Xrotation Yrotation
              JOINT LeftHand
              {
                OFFSET 26.6817 0 0.320147
                CHANNELS 3 Zrotation Xrotation Yrotation
                End Site
                {
                  OFFSET 18.6119 0 0.382219
                }
              }
            }
          }
        }
        JOINT RightShoulder
        {
          OFFSET 27.5927 4.71444 -2.65209
          CHANNELS 3 Zrotation Xrotation Yrotation
          JOINT RightArm
          {
            OFFSET 2.83739 -1.17114 -18.7564
            CHANNELS 3 Zrotation Xrotation Yrotation
            JOINT RightForeArm
            {
              OFFSET 28.839 -0.0548439 1.22491
              CHANNELS 3 Zrotation Xrotation Yrotation
              JOINT RightHand
              {
                OFFSET 26.5114 0 -0.101894
                CHANNELS 3 Zrotation Xrotation Yrotation
                End Site
                {
                  OFFSET 18.2168 0 0
                }
              }
            }
          }
        }
      }
    }
  }
  JOINT LeftUpLeg
  {
    OFFSET -4.76168 -1.9167 -10.2353
    CHANNELS 3 Zrotation Xrotation Yrotation
    JOINT LeftLeg
    {
      OFFSET 2.55951 -42.0585 -8.02213
      CHANNELS 3 Zrotation Xrotation Yrotation
      JOINT LeftFoot
      {
        OFFSET 3.16357 -42.5282 -3.95426
        CHANNELS 3 Zrotation Xrotation Yrotation
        JOINT LeftToeBase
        {
          OFFSET 0.346054 -6.02161 12.8035
          CHANNELS 3 Zrotation Xrotation Yrotation
          End Site
          {
            OFFSET 0.134235 -1.35082 5.13018
          }
        }
      }
    }
  }
  JOINT RightUpLeg
  {
    OFFSET -4.94151 -1.41743 10.6446
    CHANNELS 3 Zrotation Xrotation Yrotation
    JOINT RightLeg
    {
      OFFSET -2.56294 -42.0364 -7.94377
      CHANNELS 3 Zrotation Xrotation Yrotation
      JOINT RightFoot
      {
        OFFSET -3.0952 -42.555 -4.02241
        CHANNELS 3 Zrotation Xrotation Yrotation
        JOINT RightToeBase
        {
          OFFSET -0.0828122 -6.13587 12.8035
          CHANNELS 3 Zrotation Xrotation Yrotation
          End Site
          {
            OFFSET -0.131328 -1.35082 5.13018
          }
        }
      }
    }
  }
}
MOTION
Frames:	6
Frame Time:	0.0333333
7.27668 94.4392 -27.2991 68.6995 -28.822 -9.8089 -70.1915 0 88.8779 79.1302 71.7001 1.58878 1.13908 19.263 8.20436 -120.014 34.7954 161.879 145.733 72.705 -118.568 0.979152 -10.887 -18.8781 -61.97 38.4337 -141.989 26.0359 -5.7335 -100.791 0.420957 0.000574867 0.35866 -1.74868 7.02944 39.3284 -135.701 -2.8631 86.5002 15.2475 -0.491974 88.0191 0.58676 0.000330934 0.0646655 -51.0803 10.0262 98.8049 -1.89657 38.8317 -1.20914 1.58951 -13.7289 -1.19561 3.08676 -8.78133 9.18064 -40.8398 -10.1236 80.5044 1.35319 29.6081 -0.764462 -6.16508 0.694607 0.929408 0.165408 -5.62315 4.35484 
7.26898 94.4561 -27.2569 68.6759 -28.8406 -9.93419 -70.1915 0 88.8779 76.6856 71.6283 4.3064 2.46932 19.5458 7.28168 -120.741 34.9998 161.349 145.461 73.0673 -118.811 0.958909 -11.1686 -18.1055 -62.1474 38.5995 -142.738 25.3414 -5.4081 -100.489 0.420957 0.000574867 0.35866 -1.70656 6.91068 39.1722 -136.232 -3.46963 86.6562 15.738 -0.545692 87.8923 0.58676 0.000330934 0.0646655 -51.1337 10.0664 99.0887 -1.8951 38.7293 -1.2682 1.14475 -13.8516 -1.20057 3.05578 -8.72793 9.17289 -40.9136 -10.1957 80.4463 1.41398 29.4282 -0.0736771 -5.8525 0.852728 0.884557 0.386996 -6.06436 3.01022 
7.23847 94.6059 -27.1969 68.6902 -28.9095 -10.2837 -70.1915 0 88.8779 73.2985 71.4092 8.56886 4.76402 20.2044 4.73348 -120.322 34.7502 157.988 148.02 74.6776 -120.849 0.949136 -11.523 -16.4512 -62.228 38.6669 -144.357 25.3991 -5.05624 -99.7581 0.420957 0.000574867 0.35866 -1.71896 6.95804 39.1709 -137.284 -4.29911 86.5177 16.3677 -0.624054 87.7114 0.58676 0.000330934 0.0646655 -51.483 9.86834 99.5755 -1.99409 38.2183 -2.31629 -0.827235 -13.7957 -1.18292 2.92806 -8.80984 10.7375 -41.0948 -10.305 80.7001 1.28713 29.3292 0.0769914 -7.03018 1.43898 1.03423 0.567946 -7.30824 3.05706 
7.21772 94.5594 -27.2268 68.7372 -29.0293 -10.3918 -70.1915 0 88.8779 73.813 71.4989 7.87168 4.59187 20.1543 5.05972 -120.827 34.4517 158.597 150.091 74.4242 -122.262 0.936311 -11.6111 -16.9278 -62.6358 38.3453 -144.116 25.4179 -5.02223 -99.681 0.420957 0.000574867 0.35866 -1.72428 7.0923 38.7531 -137.253 -4.59784 86.3644 16.0559 -0.596101 87.7632 0.58676 0.000330934 0.0646655 -51.5769 9.81976 99.7111 -2.0023 38.2279 -2.37332 -0.711011 -13.9645 -1.19859 2.72298 -8.50835 10.9535 -40.9368 -10.2662 80.9551 1.18484 29.5451 -0.125372 -6.60391 1.09067 0.98071 0.528821 -6.99547 2.97644 
7.22967 94.5524 -27.247 68.6725 -29.1576 -10.7559 -70.1915 0 88.8779 73.2131 71.5426 8.26639 4.66768 20.2457 4.95922 -120.422 34.461 158.256 150.266 74.6088 -122.068 0.917646 -11.8452 -16.9806 -62.9147 38.2786 -143.801 25.3913 -5.05585 -99.7606 0.420957 0.000574867 0.35866 -1.75908 7.15842 38.9978 -137.2 -4.44346 86.625 15.4609 -0.580357 87.7391 0.58676 0.000330934 0.0646655 -51.7573 9.45308 99.7663 -1.98845 37.9841 -2.38277 -1.08137 -14.0881 -1.20785 2.76866 -8.63521 11.2101 -40.812 -10.4981 81.0506 1.20722 29.611 0.386785 -7.3573 1.00652 1.08811 0.660214 -7.34198 2.22333 
7.26535 94.5631 -27.2214 68.5675 -29.2857 -11.1408 -70.1915 0 88.8779 72.6052 71.6154 8.55177 4.63566 20.3262 5.02139 -120.585 34.5363 158.111 150.423 74.7818 -122.376 0.923779 -11.7808 -16.897 -62.7533 38.2627 -143.934 25.4463 -5.022 -99.6677 0.420957 0.000574867 0.35866 -1.74506 7.104 39.0006 -136.974 -4.48944 86.6882 15.7182 -0.608647 87.677 0.58676 0.000330934 0.0646655 -52.0056 9.0725 99.8024 -1.97874 37.6358 -2.51399 -1.39882 -14.1939 -1.21633 2.66727 -8.58034 11.7952 -40.6605 -10.7144 81.1441 1.28757 29.7433 1.42496 -8.68324 1.4793 1.26866 1.0299 -8.79797 0.316784 
